<svg aria-hidden="true" style="position:absolute;width:0;height:0" xmlns="http://www.w3.org/2000/svg" overflow="hidden">

  <defs>
    <symbol id="icon-logo" viewBox="0 0 258 77">
      <title>icon logo</title>
      <path d="M86.095 63C88.105 63 89.05 61.68 89.05 60.285C89.05 58.995 88.225 58.005 87.145 57.84C88.12 57.63 88.855 56.79 88.855 55.545C88.855 54.375 87.955 52.995 85.885 52.995H79.81V63H86.095ZM85.18 56.685H82.84V55.515H85.18C85.495 55.515 85.78 55.74 85.78 56.085C85.78 56.445 85.495 56.685 85.18 56.685ZM85.27 60.48H82.84V59.205H85.27C85.705 59.205 85.975 59.49 85.975 59.85C85.975 60.225 85.705 60.48 85.27 60.48ZM97.094 63V58.62C97.094 56.205 95.339 55.575 93.539 55.575C92.444 55.575 91.094 55.89 90.119 56.67L91.034 58.335C91.604 57.9 92.369 57.63 93.044 57.63C93.929 57.63 94.394 58.02 94.394 58.53V59.28C94.004 58.785 93.149 58.485 92.204 58.485C91.124 58.485 89.714 58.995 89.714 60.795C89.714 62.445 91.124 63.18 92.204 63.18C93.104 63.18 93.989 62.82 94.394 62.31V63H97.094ZM93.329 61.425C92.879 61.425 92.384 61.29 92.384 60.84C92.384 60.39 92.879 60.24 93.329 60.24C93.749 60.24 94.214 60.375 94.394 60.63V61.035C94.214 61.29 93.749 61.425 93.329 61.425ZM107.828 55.755V60.66H105.908V55.755H103.208V60.66H101.288V55.755H98.5879V63H110.528V55.755H107.828ZM118.92 63V58.62C118.92 56.205 117.165 55.575 115.365 55.575C114.27 55.575 112.92 55.89 111.945 56.67L112.86 58.335C113.43 57.9 114.195 57.63 114.87 57.63C115.755 57.63 116.22 58.02 116.22 58.53V59.28C115.83 58.785 114.975 58.485 114.03 58.485C112.95 58.485 111.54 58.995 111.54 60.795C111.54 62.445 112.95 63.18 114.03 63.18C114.93 63.18 115.815 62.82 116.22 62.31V63H118.92ZM115.155 61.425C114.705 61.425 114.21 61.29 114.21 60.84C114.21 60.39 114.705 60.24 115.155 60.24C115.575 60.24 116.04 60.375 116.22 60.63V61.035C116.04 61.29 115.575 61.425 115.155 61.425ZM128.347 63V58.095H130.252V55.755H123.712V58.095H125.647V63H128.347ZM133.805 63L136.13 59.565V63H138.83V55.755H136.1L133.925 58.98V55.755H131.225V63H133.805ZM147.941 63V55.755H140.336V63H143.036V58.095H145.241V63H147.941ZM153.017 63.18C155.597 63.18 157.097 61.395 157.097 59.37C157.097 57.345 155.597 55.575 153.017 55.575C150.452 55.575 148.952 57.345 148.952 59.37C148.952 61.395 150.452 63.18 153.017 63.18ZM153.017 60.795C152.192 60.795 151.727 60.18 151.727 59.37C151.727 58.575 152.192 57.96 153.017 57.96C153.857 57.96 154.322 58.575 154.322 59.37C154.322 60.18 153.857 60.795 153.017 60.795ZM163.984 55.755H158.104V63H160.804V58.095H163.984V55.755ZM169.7 63.18C171.5 63.18 172.88 61.86 172.88 59.37C172.88 56.895 171.5 55.575 169.7 55.575C168.95 55.575 168.245 55.83 167.66 56.52V55.755H164.96V65.76H167.66V62.235C168.26 62.925 168.95 63.18 169.7 63.18ZM168.77 60.795C168.425 60.795 167.9 60.6 167.66 60.3V58.455C167.915 58.14 168.425 57.96 168.77 57.96C169.49 57.96 170.12 58.47 170.12 59.37C170.12 60.285 169.49 60.795 168.77 60.795ZM180.766 63V58.62C180.766 56.205 179.011 55.575 177.211 55.575C176.116 55.575 174.766 55.89 173.791 56.67L174.706 58.335C175.276 57.9 176.041 57.63 176.716 57.63C177.601 57.63 178.066 58.02 178.066 58.53V59.28C177.676 58.785 176.821 58.485 175.876 58.485C174.796 58.485 173.386 58.995 173.386 60.795C173.386 62.445 174.796 63.18 175.876 63.18C176.776 63.18 177.661 62.82 178.066 62.31V63H180.766ZM177.001 61.425C176.551 61.425 176.056 61.29 176.056 60.84C176.056 60.39 176.551 60.24 177.001 60.24C177.421 60.24 177.886 60.375 178.066 60.63V61.035C177.886 61.29 177.421 61.425 177.001 61.425ZM184.705 55.575C183.04 55.575 181.765 56.895 181.765 59.385C181.765 61.86 183.04 63.18 184.705 63.18C185.41 63.18 186.055 62.925 186.595 62.235V65.76H189.295V62.235C189.85 62.925 190.48 63.18 191.185 63.18C192.85 63.18 194.125 61.86 194.125 59.37C194.125 56.895 192.85 55.575 191.185 55.575C190.48 55.575 189.835 55.83 189.295 56.52V52.995H186.595V56.52C186.04 55.83 185.41 55.575 184.705 55.575ZM185.635 57.96C185.935 57.96 186.385 58.155 186.595 58.455V60.3C186.37 60.615 185.935 60.795 185.635 60.795C185.02 60.795 184.48 60.285 184.48 59.385C184.48 58.47 185.02 57.96 185.635 57.96ZM190.255 60.795C189.955 60.795 189.505 60.6 189.295 60.3V58.455C189.52 58.14 189.955 57.96 190.255 57.96C190.87 57.96 191.41 58.47 191.41 59.37C191.41 60.285 190.87 60.795 190.255 60.795ZM197.716 63L200.041 59.565V63H202.741V55.755H200.011L197.836 58.98V55.755H195.136V63H197.716ZM207.082 63L208.087 60.84H209.152V63H211.852V55.755H206.872C205.132 55.755 204.097 56.925 204.097 58.29C204.097 59.685 204.967 60.33 205.507 60.57L204.082 63H207.082ZM207.382 58.725C207.052 58.725 206.827 58.545 206.827 58.29C206.827 58.05 207.052 57.87 207.382 57.87H209.152V58.725H207.382Z" fill="#3A4047"/>
      <path d="M89.288 44V33.92H96.68C104.168 33.92 108.2 28.928 108.2 22.976C108.2 16.976 104.168 11.984 96.68 11.984H79.592V44H89.288ZM95.432 25.472H89.288V20.432H95.432C97.064 20.432 98.36 21.248 98.36 22.976C98.36 24.656 97.064 25.472 95.432 25.472ZM140.029 44L134.221 32.672C136.765 31.424 139.981 28.496 139.981 22.976C139.981 16.976 135.949 11.984 128.461 11.984H111.373V44H121.069V33.92H124.573L128.989 44H140.029ZM126.973 25.472H121.069V20.432H126.973C128.605 20.432 130.141 21.2 130.141 22.928C130.141 24.704 128.605 25.472 126.973 25.472ZM153.601 44V11.984H143.905V44H153.601ZM189.58 44V11.984H179.884V27.152L168.748 11.984H158.764V44H168.46V27.776L180.268 44H189.58ZM211.324 44V20.432H219.868V11.984H193.036V20.432H201.628V44H211.324ZM247.599 44V35.552H233.007V32.048H247.263V23.6H233.007V20.432H247.599V11.984H223.311V44H247.599Z" fill="#1AB0CE"/>
      <path d="M22.3319 40.4553C22.3319 28.0043 32.3324 17.9096 44.666 17.9096C57.0015 17.9096 67 28.0043 67 40.4553C67 52.9064 57.0015 63 44.666 63C32.3324 62.9999 22.3319 52.9063 22.3319 40.4553Z" fill="#4FC2E9"/>
      <path d="M0 40.4553C0 28.0043 9.9985 17.9096 22.3319 17.9096C34.6675 17.9096 44.666 28.0043 44.666 40.4553C44.666 52.9064 34.6675 63 22.3319 63C9.99837 62.9999 0 52.9063 0 40.4553Z" fill="#EC87C0"/>
      <path d="M33.4999 20.9263C26.8241 24.8255 22.3319 32.1109 22.3319 40.4552C22.3319 48.7985 26.8241 56.0849 33.4999 59.982C40.1739 56.0849 44.666 48.7984 44.666 40.4552C44.666 32.1109 40.1737 24.8255 33.4999 20.9263Z" fill="#5D9CEC"/>
      <path d="M33.4999 46.0904C21.1644 46.0904 11.166 35.9967 11.166 23.5468C11.1659 11.0947 21.1644 1 33.4999 1C45.8335 1 55.832 11.0947 55.832 23.5468C55.8319 35.9968 45.8335 46.0904 33.4999 46.0904Z" fill="#FFCE54"/>
      <path d="M22.3319 40.4553C22.3319 41.372 22.3891 42.2759 22.4935 43.1676C25.7424 45.0295 29.4985 46.0904 33.4999 46.0904C45.8335 46.0904 55.832 35.9967 55.832 23.5468C55.832 22.6283 55.7768 21.723 55.6725 20.8346C52.4235 18.9737 48.6673 17.9096 44.666 17.9096C32.3324 17.9095 22.3319 28.0043 22.3319 40.4553Z" fill="#A0D468"/>
      <path d="M22.3319 17.9095C18.3305 17.9095 14.5765 18.9736 11.3274 20.8344C11.2211 21.723 11.1659 22.6282 11.1659 23.5467C11.1659 35.9967 21.1644 46.0903 33.4998 46.0903C37.5012 46.0903 41.2573 45.0293 44.5043 43.1674C44.6106 42.2758 44.6658 41.3717 44.6658 40.4552C44.666 28.0043 34.6675 17.9095 22.3319 17.9095Z" fill="#ED5564"/>
      <path d="M34.1337 46.0821C34.3014 46.078 34.469 46.0697 34.6368 46.0615C34.6553 46.0615 34.6736 46.0615 34.6942 46.0574C34.8455 46.0492 34.9947 46.0409 35.1459 46.0284C35.1867 46.0284 35.2298 46.0243 35.2706 46.0202C35.4321 46.0078 35.5938 45.9954 35.7553 45.979C35.788 45.9749 35.8228 45.9708 35.8555 45.9666C35.9925 45.9501 36.1274 45.9377 36.2622 45.9211C36.3052 45.9129 36.3481 45.9087 36.391 45.9046C36.5465 45.884 36.7019 45.8592 36.8553 45.8386C36.9003 45.8304 36.9473 45.822 36.9923 45.8179C37.115 45.7975 37.2355 45.7767 37.3562 45.7561C37.4031 45.7479 37.4502 45.7396 37.4972 45.7313C37.6444 45.7023 37.7896 45.6734 37.9368 45.6446C37.9921 45.6364 38.0473 45.624 38.1025 45.6115C38.2129 45.5867 38.3212 45.562 38.4296 45.5373C38.4808 45.5291 38.5317 45.5167 38.5829 45.5042C38.7219 45.4712 38.8589 45.4382 38.996 45.401C39.0614 45.3845 39.1248 45.368 39.1902 45.3515C39.2863 45.3267 39.3824 45.2979 39.4784 45.273C39.5664 45.2482 39.6562 45.2236 39.7441 45.1947C39.8423 45.1698 39.9384 45.141 40.0346 45.108C40.1062 45.0874 40.1797 45.0625 40.2513 45.0419C40.3331 45.013 40.417 44.9883 40.4987 44.9593C40.6111 44.9222 40.7236 44.8851 40.836 44.8437C40.9076 44.8189 40.9771 44.7941 41.0487 44.7694C41.1284 44.7406 41.2083 44.7117 41.2859 44.6829C41.3534 44.658 41.4189 44.6333 41.4843 44.6044C41.6151 44.5548 41.746 44.5053 41.8767 44.4517C41.9299 44.4268 41.9851 44.4062 42.0382 44.3815C42.1241 44.3485 42.21 44.3113 42.2939 44.2742C42.3287 44.2577 42.3634 44.2453 42.3982 44.2287C42.5577 44.1586 42.7172 44.0884 42.8746 44.0142C42.9196 43.9935 42.9624 43.9729 43.0075 43.9522C43.2877 43.8159 43.5658 43.6755 43.8397 43.5311C43.8764 43.5145 43.9132 43.4939 43.9501 43.4732C44.134 43.3741 44.3161 43.275 44.4982 43.1718C44.5003 43.1677 44.5022 43.1677 44.5043 43.1677C44.6106 42.276 44.6658 41.372 44.6658 40.4555C44.6658 32.1112 40.1737 24.8257 33.4998 20.9265C26.8239 24.8257 22.3318 32.1112 22.3318 40.4555C22.3318 41.3721 22.389 42.276 22.4933 43.1677C22.5014 43.1718 22.5118 43.1759 22.5199 43.1801C22.6937 43.2792 22.8695 43.3783 23.0474 43.4733C23.0842 43.4939 23.123 43.5145 23.1598 43.5353C23.4338 43.6797 23.7098 43.8159 23.9899 43.9481C24.0348 43.9729 24.0798 43.9935 24.1249 44.0142C24.2783 44.0842 24.4336 44.1545 24.589 44.2246C24.6279 44.2412 24.6667 44.2577 24.7056 44.2742C24.7895 44.3113 24.8733 44.3485 24.9591 44.3815C25.0144 44.4063 25.0696 44.4269 25.1247 44.4517C25.2515 44.5053 25.3824 44.5548 25.5112 44.6044C25.5788 44.6292 25.6442 44.658 25.7116 44.6829C25.7913 44.7118 25.8712 44.7408 25.9509 44.7694C26.0204 44.7943 26.092 44.819 26.1636 44.8437C26.2739 44.8849 26.3865 44.9222 26.4989 44.9593C26.5807 44.9883 26.6645 45.013 26.7484 45.0419C26.8199 45.0667 26.8915 45.0874 26.9652 45.108C27.0612 45.141 27.1573 45.1699 27.2555 45.1989C27.3434 45.2237 27.4312 45.2483 27.5192 45.2731C27.6153 45.298 27.7114 45.3268 27.8095 45.3516C27.8729 45.3681 27.9383 45.3847 28.0038 45.4012C28.1387 45.4383 28.2777 45.4713 28.4148 45.5044C28.4658 45.5168 28.517 45.5292 28.568 45.5374C28.6785 45.5623 28.7867 45.587 28.8952 45.6117C28.9505 45.6241 29.0077 45.6365 29.0629 45.6447C29.2081 45.6736 29.3553 45.7026 29.5005 45.7314C29.5475 45.7396 29.5945 45.7479 29.6416 45.7562C29.7623 45.7768 29.8849 45.7975 30.0075 45.8181C30.0526 45.8222 30.0976 45.8305 30.1425 45.8387C30.298 45.8593 30.4513 45.8841 30.6066 45.9048C30.6496 45.9088 30.6945 45.9129 30.7375 45.9213C30.8725 45.9378 31.0074 45.9502 31.1424 45.9667C31.1772 45.9708 31.2099 45.9749 31.2446 45.9791C31.4061 45.9957 31.5655 46.0081 31.7291 46.0204C31.77 46.0245 31.8109 46.0286 31.8518 46.0286C32.0031 46.041 32.1544 46.0492 32.3057 46.0575C32.3242 46.0616 32.3446 46.0616 32.3629 46.0616C32.5306 46.0698 32.6982 46.0781 32.8659 46.0822C32.9067 46.0822 32.9456 46.0822 32.9865 46.0863C33.1562 46.0904 33.3279 46.0904 33.4997 46.0904C33.6715 46.0904 33.8412 46.0904 34.0109 46.0863C34.0519 46.0821 34.0927 46.0821 34.1337 46.0821Z" fill="#434A54"/>
    </symbol>

    <symbol id="icon-cart" viewBox="0 0 48 48">
      <title>icon cart</title>
      <path d="M16 46C18.2091 46 20 44.2091 20 42C20 39.7909 18.2091 38 16 38C13.7909 38 12 39.7909 12 42C12 44.2091 13.7909 46 16 46Z" stroke="#1AB0CE" stroke-width="4" stroke-linecap="round" stroke-linejoin="round"/>
      <path d="M40 46C42.2091 46 44 44.2091 44 42C44 39.7909 42.2091 38 40 38C37.7909 38 36 39.7909 36 42C36 44.2091 37.7909 46 40 46Z" stroke="#1AB0CE" stroke-width="4" stroke-linecap="round" stroke-linejoin="round"/>
      <path d="M11.34 12H46L42.64 28.78C42.2625 30.6805 40.5772 32.0371 38.64 32H17.5C15.479 32.0171 13.7627 30.524 13.5 28.52L10.46 5.48C10.1992 3.49119 8.50583 2.00304 6.5 2H2" stroke="#1AB0CE" stroke-width="4" stroke-linecap="round" stroke-linejoin="round"/>
    </symbol>

    <symbol id="icon-cabinet" viewBox="0 0 14 15">
      <title>icon cabinet</title>
      <path d="M12.5556 13.9999V12.5555C12.5556 10.96 11.2622 9.6666 9.66667 9.6666H3.88889C2.2934 9.6666 1 10.96 1 12.5555V13.9999" stroke="#1AB0CE" stroke-linecap="round" stroke-linejoin="round"/>
      <path d="M6.7778 6.77778C8.37329 6.77778 9.66669 5.48438 9.66669 3.88889C9.66669 2.2934 8.37329 1 6.7778 1C5.18232 1 3.88892 2.2934 3.88892 3.88889C3.88892 5.48438 5.18232 6.77778 6.7778 6.77778Z" stroke="#1AB0CE" stroke-linecap="round" stroke-linejoin="round"/>
    </symbol>

    <symbol id="icon-facebook" viewBox="0 0 13 22">
      <title>icon facebook</title>
      <path fill-rule="evenodd" clip-rule="evenodd" d="M12 1H9C6.23858 1 4 3.23858 4 6V9H1V13H4V21H8V13H11L12 9H8V6C8 5.44772 8.44772 5 9 5H12V1Z" stroke="#3D76B9" stroke-width="2" stroke-linecap="round" stroke-linejoin="round"/>
    </symbol>

    <symbol id="icon-search" viewBox="0 0 20 20">
      <title>icon search</title>
      <path d="M8.5 16C12.6421 16 16 12.6421 16 8.5C16 4.35786 12.6421 1 8.5 1C4.35786 1 1 4.35786 1 8.5C1 12.6421 4.35786 16 8.5 16Z"  stroke-width="2" stroke-linecap="round" stroke-linejoin="round"/>
      <path d="M19 19L13.8 13.8"  stroke-width="2" stroke-linecap="round" stroke-linejoin="round"/>
    </symbol>

    <symbol id="icon-office" viewBox="0 0 53 62">
      <title>icon office</title>
      <path d="M52.5971 16.7488H16.7487V61.9999H52.5971V16.7488Z" fill="#FF4181"/>
      <path d="M47.0142 11.1659H11.1658V56.417H47.0142V11.1659Z" fill="#FF755C"/>
      <path d="M41.4313 5.58289H5.58291V50.834H41.4313V5.58289Z" fill="#FF9356"/>
      <path d="M35.8484 45.2512H9.23872e-08V0H24.9763L35.8484 10.872V45.2512Z" fill="#FFCE47"/>
      <path d="M24.9763 0V10.872H35.8484L24.9763 0Z" fill="#FFEBB4"/>
    </symbol>

    <symbol id="icon-advertising" viewBox="0 0 62 62">
      <title>icon advertising</title>
      <path d="M20.6657 5.8768L25.0733 33.9383L20.6657 62L0 56.1232V0L20.6657 5.8768Z" fill="#85C250"/>
      <path d="M62 5.8768V62L41.3328 56.1232L38.3945 28.0617L41.3328 0L62 5.8768Z" fill="#85C250"/>
      <path d="M41.3328 0V56.1232L20.6657 62V5.8768L41.3328 0Z" fill="#C9D467"/>
      <path d="M14.7899 54.4523C14.657 54.4523 14.5217 54.4342 14.3874 54.3959L5.47502 51.8615C4.69457 51.6396 4.2418 50.8269 4.46376 50.0465C4.68561 49.266 5.49791 48.8131 6.27884 49.0352L15.1912 51.5696C15.9717 51.7916 16.4244 52.6042 16.2025 53.3847C16.0187 54.0308 15.4299 54.4523 14.7899 54.4523Z" fill="#174461"/>
      <path d="M14.7899 47.1064C14.657 47.1064 14.5217 47.0882 14.3874 47.0499L5.47502 44.5156C4.69457 44.2936 4.2418 43.4809 4.46376 42.7005C4.68561 41.92 5.49791 41.4669 6.27884 41.6892L15.1912 44.2236C15.9717 44.4456 16.4244 45.2582 16.2025 46.0387C16.0187 46.6848 15.4299 47.1064 14.7899 47.1064Z" fill="#174461"/>
      <path d="M14.7899 39.7604C14.657 39.7604 14.5217 39.7422 14.3874 39.704L5.47502 37.1696C4.69457 36.9476 4.2418 36.135 4.46376 35.3545C4.68561 34.5741 5.49791 34.1213 6.27884 34.3433L15.1912 36.8777C15.9717 37.0996 16.4244 37.9123 16.2025 38.6927C16.0187 39.3389 15.4299 39.7604 14.7899 39.7604Z" fill="#174461"/>
      <path d="M5.8768 9.01709V28.4105L14.7892 30.9449V11.5515L5.8768 9.01709Z" fill="#174461"/>
      <path d="M26.5421 13.0213C25.902 13.0213 25.3133 12.5997 25.1296 11.9536C24.9077 11.173 25.3604 10.3606 26.1409 10.1385L35.0543 7.60401C35.8344 7.38205 36.6473 7.83494 36.8694 8.61527C37.0914 9.39584 36.6386 10.2083 35.8582 10.4303L26.9447 12.9648C26.8103 13.003 26.6751 13.0213 26.5421 13.0213Z" fill="white"/>
      <path d="M26.5421 54.4524C25.902 54.4524 25.3133 54.0309 25.1296 53.3847C24.9077 52.6042 25.3604 51.7918 26.1409 51.5697L35.0543 49.0352C35.8344 48.8132 36.6473 49.266 36.8694 50.0464C37.0914 50.827 36.6386 51.6394 35.8582 51.8615L26.9447 54.396C26.8103 54.4341 26.6751 54.4524 26.5421 54.4524Z" fill="white"/>
      <path d="M26.5421 47.1065C25.902 47.1065 25.3133 46.685 25.1296 46.0388C24.9077 45.2582 25.3604 44.4458 26.1409 44.2237L35.0543 41.6892C35.8344 41.4673 36.6473 41.92 36.8694 42.7005C37.0914 43.4811 36.6386 44.2935 35.8582 44.5156L26.9447 47.05C26.8103 47.0883 26.6751 47.1065 26.5421 47.1065Z" fill="white"/>
      <path d="M26.5421 39.7605C25.902 39.7605 25.3133 39.339 25.1296 38.6928C24.9077 37.9122 25.3604 37.0998 26.1409 36.8777L35.0543 34.3432C35.8344 34.1214 36.6473 34.5742 36.8694 35.3545C37.0914 36.1351 36.6386 36.9476 35.8582 37.1696L26.9447 39.704C26.8103 39.7422 26.6751 39.7605 26.5421 39.7605Z" fill="white"/>
      <path d="M26.5421 32.4145C25.902 32.4145 25.3133 31.993 25.1296 31.3469C24.9077 30.5663 25.3604 29.7537 26.1409 29.5318L35.0543 26.9973C35.8344 26.7754 36.6473 27.2281 36.8694 28.0085C37.0914 28.7891 36.6386 29.6015 35.8582 29.8236L26.9447 32.3581C26.8103 32.3964 26.6751 32.4145 26.5421 32.4145Z" fill="white"/>
      <path d="M56.1239 13.0212C55.991 13.0212 55.8557 13.0031 55.7214 12.9648L46.8079 10.4302C46.0275 10.2082 45.5747 9.39556 45.7967 8.61511C46.0186 7.83466 46.8309 7.38201 47.6118 7.60386L56.5252 10.1385C57.3057 10.3604 57.7584 11.1731 57.5365 11.9535C57.3527 12.5997 56.7639 13.0212 56.1239 13.0212Z" fill="#174461"/>
      <path d="M56.1239 20.3671C55.991 20.3671 55.8557 20.349 55.7214 20.3107L46.8079 17.7761C46.0275 17.5541 45.5747 16.7415 45.7967 15.961C46.0186 15.1806 46.8309 14.728 47.6118 14.9498L56.5252 17.4844C57.3057 17.7063 57.7584 18.519 57.5365 19.2995C57.3527 19.9456 56.7639 20.3671 56.1239 20.3671Z" fill="#174461"/>
      <path d="M56.1239 27.7132C55.991 27.7132 55.8557 27.695 55.7214 27.6568L46.8079 25.1222C46.0275 24.9002 45.5747 24.0875 45.7967 23.3071C46.0186 22.5266 46.8309 22.0741 47.6118 22.2958L56.5252 24.8304C57.3057 25.0524 57.7584 25.8651 57.5365 26.6455C57.3527 27.2917 56.7639 27.7132 56.1239 27.7132Z" fill="#174461"/>
      <path d="M47.2097 31.0549V50.4482L56.1232 52.983V33.5895L47.2097 31.0549Z" fill="#174461"/>
    </symbol>

    <symbol id="icon-business" viewBox="0 0 46 62">
      <title>icon business</title>
      <path d="M2.38593 55.2547V60.4783C2.53766 60.5333 2.70041 60.5649 2.87042 60.5649H42.338V55.2547L22.3619 53.8195L2.38593 55.2547Z" fill="#9AD7FF"/>
      <path d="M42.338 49.9445H2.87042C2.70041 49.9445 2.53766 49.9761 2.3858 50.031V55.2547H42.338V49.9445Z" fill="#C2E7FF"/>
      <path d="M6.74539 55.2546C6.74539 52.6466 4.86468 50.4792 2.38577 50.031C1.83334 50.2311 1.4353 50.7605 1.4353 51.3796V59.1296C1.4353 59.7488 1.83346 60.2782 2.38577 60.4783C4.86468 60.03 6.74539 57.8626 6.74539 55.2546Z" fill="#4EB9FF"/>
      <path d="M2.1528 0C0.963906 0 2.21729e-08 0.963906 2.21729e-08 2.1528V51.3797L10.0463 49.9445L15.787 24.9723L10.0463 0H2.1528Z" fill="#FFC0D5"/>
      <path d="M42.338 2.87041L34.301 0H10.0463V49.9444H40.9028L45.2084 37.6015V10.9075L42.338 2.87041Z" fill="#FF755C"/>
      <path d="M33.9422 25.7171H21.3125C20.52 25.7171 19.8773 25.0744 19.8773 24.2819C19.8773 23.4893 20.52 22.8467 21.3125 22.8467H33.9422C34.7348 22.8467 35.3774 23.4893 35.3774 24.2819C35.3774 25.0744 34.7347 25.7171 33.9422 25.7171Z" fill="#FFC0D5"/>
      <path d="M36.2385 19.9764H19.0162C18.2236 19.9764 17.581 19.3337 17.581 18.5412C17.581 17.7486 18.2236 17.106 19.0162 17.106H36.2384C37.031 17.106 37.6736 17.7486 37.6736 18.5412C37.6736 19.3337 37.0309 19.9764 36.2385 19.9764Z" fill="#FFC0D5"/>
      <path d="M45.2084 49.9444L34.301 48.5093L45.2084 37.6019V49.9444Z" fill="#FFCE47"/>
      <path d="M45.2084 0V10.9074L34.301 0H45.2084Z" fill="#FFCE47"/>
      <path d="M43.7732 59.1296H2.87041V51.3796H43.7732C44.5658 51.3796 45.2084 50.7369 45.2084 49.9444C45.2084 49.1518 44.5658 48.5092 43.7732 48.5092H2.87041C1.28771 48.5092 2.21729e-08 49.7967 2.21729e-08 51.3796V59.1296C2.21729e-08 60.7123 1.28759 62 2.87041 62H43.7732C44.5658 62 45.2084 61.3573 45.2084 60.5648C45.2084 59.7723 44.5656 59.1296 43.7732 59.1296Z" fill="#FF4181"/>
    </symbol>

    <symbol id="icon-phone" viewBox="0 0 22 22">
      <title>icon phone</title>
      <path fill-rule="evenodd" clip-rule="evenodd" d="M20.8881 15.9201V18.9201C20.8904 19.4832 20.6552 20.0213 20.2402 20.402C19.8252 20.7827 19.269 20.9708 18.7081 20.9201C15.631 20.5857 12.6751 19.5342 10.0781 17.8501C7.66195 16.3148 5.61346 14.2663 4.07812 11.8501C2.3881 9.2413 1.33637 6.27109 1.00812 3.1801C0.957597 2.62097 1.1444 2.06635 1.52289 1.65172C1.90138 1.23709 2.43672 1.00063 2.99812 1.0001H5.99812C7.00199 0.990218 7.85762 1.72607 7.99812 2.7201C8.12475 3.68016 8.35957 4.62283 8.69812 5.5301C8.97286 6.26097 8.79714 7.0849 8.24812 7.6401L6.97812 8.9101C8.40168 11.4136 10.4746 13.4865 12.9781 14.9101L14.2481 13.6401C14.8033 13.0911 15.6272 12.9154 16.3581 13.1901C17.2654 13.5286 18.2081 13.7635 19.1681 13.8901C20.1737 14.032 20.9133 14.9049 20.8881 15.9201Z" stroke="#3A4047" stroke-width="2" stroke-linecap="round" stroke-linejoin="round"/>
    </symbol>

    <symbol id="icon-arrow-down" viewBox="0 0 10 6">
      <title>icon arrow down</title>
      <path d="M9 1L5 5L1 1"  stroke-width="2" stroke-linecap="round" stroke-linejoin="round"/>
    </symbol>

  </defs>
</svg>









